<svg xmlns="http://www.w3.org/2000/svg" width="1200" height="360" viewBox="0 0 1200 360" role="img" aria-labelledby="bc-title bc-desc">
  <title id="bc-title">Baixiao Reading Cockpit</title>
  <desc id="bc-desc">Baixiao Reading Cockpit: an Obsidian plugin dashboard that groups vault notes by reading and absorption status, with a reading queue, an annual 365-day reading heatmap and fluid stat cards.</desc>
  <defs>
    <linearGradient id="bg-g" x1="0" y1="0" x2="1" y2="1">
      <stop offset="0%" stop-color="#0c110f"/>
      <stop offset="100%" stop-color="#0a0e0c"/>
    </linearGradient>
  </defs>
  <rect id="frame" width="1200" height="360" rx="26" fill="url(#bg-g)"/>
  <g id="col-unread"><rect x="648" y="34" width="156" height="200" rx="14" fill="#141a17" stroke="#26302a"/><rect x="660" y="48" width="76" height="22" rx="11" fill="#8a9490" fill-opacity="0.16"/><circle cx="672" cy="59" r="4" fill="#8a9490"/><text x="682" y="64" font-family="-apple-system, BlinkMacSystemFont, Segoe UI, PingFang SC, sans-serif" font-size="13" fill="#8a9490">未读</text><rect x="660" y="82" width="132" height="46" rx="9" fill="#1d2420" stroke="#2c3630"/><rect x="670" y="91" width="92" height="6" rx="3" fill="#e8f0ec" fill-opacity="0.62"/><rect x="670" y="104" width="62" height="5" rx="2.5" fill="#93a29a" fill-opacity="0.4"/><rect x="770" y="92" width="8" height="8" rx="4" fill="#3a453f" fill-opacity="0.5"/><rect x="660" y="134" width="132" height="46" rx="9" fill="#1d2420" stroke="#2c3630"/><rect x="670" y="143" width="92" height="6" rx="3" fill="#e8f0ec" fill-opacity="0.62"/><rect x="670" y="156" width="62" height="5" rx="2.5" fill="#93a29a" fill-opacity="0.4"/><rect x="770" y="144" width="8" height="8" rx="4" fill="#3a453f" fill-opacity="0.5"/><rect x="660" y="186" width="132" height="46" rx="9" fill="#1d2420" stroke="#2c3630"/><rect x="670" y="195" width="92" height="6" rx="3" fill="#e8f0ec" fill-opacity="0.62"/><rect x="670" y="208" width="62" height="5" rx="2.5" fill="#93a29a" fill-opacity="0.4"/><rect x="770" y="196" width="8" height="8" rx="4" fill="#3a453f" fill-opacity="0.5"/></g><g id="col-reading"><rect x="818" y="34" width="156" height="200" rx="14" fill="#141a17" stroke="#26302a"/><rect x="830" y="48" width="76" height="22" rx="11" fill="#5ba7ff" fill-opacity="0.16"/><circle cx="842" cy="59" r="4" fill="#5ba7ff"/><text x="852" y="64" font-family="-apple-system, BlinkMacSystemFont, Segoe UI, PingFang SC, sans-serif" font-size="13" fill="#5ba7ff">在读</text><rect x="830" y="82" width="132" height="46" rx="9" fill="#1d2420" stroke="#2c3630"/><rect x="840" y="91" width="92" height="6" rx="3" fill="#e8f0ec" fill-opacity="0.62"/><rect x="840" y="104" width="62" height="5" rx="2.5" fill="#93a29a" fill-opacity="0.4"/><rect x="940" y="92" width="8" height="8" rx="4" fill="#5ba7ff" fill-opacity="0.95"/><rect x="830" y="134" width="132" height="46" rx="9" fill="#1d2420" stroke="#2c3630"/><rect x="840" y="143" width="92" height="6" rx="3" fill="#e8f0ec" fill-opacity="0.62"/><rect x="840" y="156" width="62" height="5" rx="2.5" fill="#93a29a" fill-opacity="0.4"/><rect x="940" y="144" width="8" height="8" rx="4" fill="#5ba7ff" fill-opacity="0.95"/></g><g id="col-done"><rect x="988" y="34" width="156" height="200" rx="14" fill="#141a17" stroke="#26302a"/><rect x="1000" y="48" width="76" height="22" rx="11" fill="#00e676" fill-opacity="0.16"/><circle cx="1012" cy="59" r="4" fill="#00e676"/><text x="1022" y="64" font-family="-apple-system, BlinkMacSystemFont, Segoe UI, PingFang SC, sans-serif" font-size="13" fill="#00e676">已读</text><rect x="1000" y="82" width="132" height="46" rx="9" fill="#1d2420" stroke="#2c3630"/><rect x="1010" y="91" width="92" height="6" rx="3" fill="#e8f0ec" fill-opacity="0.62"/><rect x="1010" y="104" width="62" height="5" rx="2.5" fill="#93a29a" fill-opacity="0.4"/><rect x="1110" y="92" width="8" height="8" rx="4" fill="#3a453f" fill-opacity="0.5"/><rect x="1000" y="134" width="132" height="46" rx="9" fill="#1d2420" stroke="#2c3630"/><rect x="1010" y="143" width="92" height="6" rx="3" fill="#e8f0ec" fill-opacity="0.62"/><rect x="1010" y="156" width="62" height="5" rx="2.5" fill="#93a29a" fill-opacity="0.4"/><rect x="1110" y="144" width="8" height="8" rx="4" fill="#3a453f" fill-opacity="0.5"/><rect x="1000" y="186" width="132" height="46" rx="9" fill="#1d2420" stroke="#2c3630"/><rect x="1010" y="195" width="92" height="6" rx="3" fill="#e8f0ec" fill-opacity="0.62"/><rect x="1010" y="208" width="62" height="5" rx="2.5" fill="#93a29a" fill-opacity="0.4"/><rect x="1110" y="196" width="8" height="8" rx="4" fill="#3a453f" fill-opacity="0.5"/></g>
  <g id="heatmap"><rect x="648.0" y="262.0" width="5.4" height="5.4" rx="1.4" fill="#1d2b22" fill-opacity="0.10"/><rect x="648.0" y="269.6" width="5.4" height="5.4" rx="1.4" fill="#00e676" fill-opacity="0.68"/><rect x="648.0" y="277.2" width="5.4" height="5.4" rx="1.4" fill="#1d2b22" fill-opacity="0.10"/><rect x="648.0" y="284.8" width="5.4" height="5.4" rx="1.4" fill="#8dffb0" fill-opacity="1.00"/><rect x="648.0" y="292.4" width="5.4" height="5.4" rx="1.4" fill="#0b7a3c" fill-opacity="0.38"/><rect x="648.0" y="300.0" width="5.4" height="5.4" rx="1.4" fill="#1d2b22" fill-opacity="0.10"/><rect x="648.0" y="307.6" width="5.4" height="5.4" rx="1.4" fill="#00e676" fill-opacity="0.68"/><rect x="655.6" y="262.0" width="5.4" height="5.4" rx="1.4" fill="#1d2b22" fill-opacity="0.10"/><rect x="655.6" y="269.6" width="5.4" height="5.4" rx="1.4" fill="#8dffb0" fill-opacity="1.00"/><rect x="655.6" y="277.2" width="5.4" height="5.4" rx="1.4" fill="#0b7a3c" fill-opacity="0.38"/><rect x="655.6" y="284.8" width="5.4" height="5.4" rx="1.4" fill="#1d2b22" fill-opacity="0.10"/><rect x="655.6" y="292.4" width="5.4" height="5.4" rx="1.4" fill="#00e676" fill-opacity="0.68"/><rect x="655.6" y="300.0" width="5.4" height="5.4" rx="1.4" fill="#1d2b22" fill-opacity="0.10"/><rect x="655.6" y="307.6" width="5.4" height="5.4" rx="1.4" fill="#8dffb0" fill-opacity="1.00"/><rect x="663.2" y="262.0" width="5.4" height="5.4" rx="1.4" fill="#0b7a3c" fill-opacity="0.38"/><rect x="663.2" y="269.6" width="5.4" height="5.4" rx="1.4" fill="#1d2b22" fill-opacity="0.10"/><rect x="663.2" y="277.2" width="5.4" height="5.4" rx="1.4" fill="#00e676" fill-opacity="0.68"/><rect x="663.2" y="284.8" width="5.4" height="5.4" rx="1.4" fill="#0b7a3c" fill-opacity="0.38"/><rect x="663.2" y="292.4" width="5.4" height="5.4" rx="1.4" fill="#8dffb0" fill-opacity="1.00"/><rect x="663.2" y="300.0" width="5.4" height="5.4" rx="1.4" fill="#00e676" fill-opacity="0.68"/><rect x="663.2" y="307.6" width="5.4" height="5.4" rx="1.4" fill="#1d2b22" fill-opacity="0.10"/><rect x="670.8" y="262.0" width="5.4" height="5.4" rx="1.4" fill="#8dffb0" fill-opacity="1.00"/><rect x="670.8" y="269.6" width="5.4" height="5.4" rx="1.4" fill="#0b7a3c" fill-opacity="0.38"/><rect x="670.8" y="277.2" width="5.4" height="5.4" rx="1.4" fill="#1d2b22" fill-opacity="0.10"/><rect x="670.8" y="284.8" width="5.4" height="5.4" rx="1.4" fill="#00e676" fill-opacity="0.68"/><rect x="670.8" y="292.4" width="5.4" height="5.4" rx="1.4" fill="#1d2b22" fill-opacity="0.10"/><rect x="670.8" y="300.0" width="5.4" height="5.4" rx="1.4" fill="#8dffb0" fill-opacity="1.00"/><rect x="670.8" y="307.6" width="5.4" height="5.4" rx="1.4" fill="#0b7a3c" fill-opacity="0.38"/><rect x="678.4" y="262.0" width="5.4" height="5.4" rx="1.4" fill="#1d2b22" fill-opacity="0.10"/><rect x="678.4" y="269.6" width="5.4" height="5.4" rx="1.4" fill="#00e676" fill-opacity="0.68"/><rect x="678.4" y="277.2" width="5.4" height="5.4" rx="1.4" fill="#1d2b22" fill-opacity="0.10"/><rect x="678.4" y="284.8" width="5.4" height="5.4" rx="1.4" fill="#8dffb0" fill-opacity="1.00"/><rect x="678.4" y="292.4" width="5.4" height="5.4" rx="1.4" fill="#0b7a3c" fill-opacity="0.38"/><rect x="678.4" y="300.0" width="5.4" height="5.4" rx="1.4" fill="#1d2b22" fill-opacity="0.10"/><rect x="678.4" y="307.6" width="5.4" height="5.4" rx="1.4" fill="#00e676" fill-opacity="0.68"/><rect x="686.0" y="262.0" width="5.4" height="5.4" rx="1.4" fill="#0b7a3c" fill-opacity="0.38"/><rect x="686.0" y="269.6" width="5.4" height="5.4" rx="1.4" fill="#8dffb0" fill-opacity="1.00"/><rect x="686.0" y="277.2" width="5.4" height="5.4" rx="1.4" fill="#0b7a3c" fill-opacity="0.38"/><rect x="686.0" y="284.8" width="5.4" height="5.4" rx="1.4" fill="#1d2b22" fill-opacity="0.10"/><rect x="686.0" y="292.4" width="5.4" height="5.4" rx="1.4" fill="#00e676" fill-opacity="0.68"/><rect x="686.0" y="300.0" width="5.4" height="5.4" rx="1.4" fill="#0b7a3c" fill-opacity="0.38"/><rect x="686.0" y="307.6" width="5.4" height="5.4" rx="1.4" fill="#1d2b22" fill-opacity="0.10"/><rect x="693.6" y="262.0" width="5.4" height="5.4" rx="1.4" fill="#00e676" fill-opacity="0.68"/><rect x="693.6" y="269.6" width="5.4" height="5.4" rx="1.4" fill="#1d2b22" fill-opacity="0.10"/><rect x="693.6" y="277.2" width="5.4" height="5.4" rx="1.4" fill="#8dffb0" fill-opacity="1.00"/><rect x="693.6" y="284.8" width="5.4" height="5.4" rx="1.4" fill="#0b7a3c" fill-opacity="0.38"/><rect x="693.6" y="292.4" width="5.4" height="5.4" rx="1.4" fill="#1d2b22" fill-opacity="0.10"/><rect x="693.6" y="300.0" width="5.4" height="5.4" rx="1.4" fill="#00e676" fill-opacity="0.68"/><rect x="693.6" y="307.6" width="5.4" height="5.4" rx="1.4" fill="#1d2b22" fill-opacity="0.10"/><rect x="701.2" y="262.0" width="5.4" height="5.4" rx="1.4" fill="#8dffb0" fill-opacity="1.00"/><rect x="701.2" y="269.6" width="5.4" height="5.4" rx="1.4" fill="#0b7a3c" fill-opacity="0.38"/><rect x="701.2" y="277.2" width="5.4" height="5.4" rx="1.4" fill="#1d2b22" fill-opacity="0.10"/><rect x="701.2" y="284.8" width="5.4" height="5.4" rx="1.4" fill="#00e676" fill-opacity="0.68"/><rect x="701.2" y="292.4" width="5.4" height="5.4" rx="1.4" fill="#1d2b22" fill-opacity="0.10"/><rect x="701.2" y="300.0" width="5.4" height="5.4" rx="1.4" fill="#8dffb0" fill-opacity="1.00"/><rect x="701.2" y="307.6" width="5.4" height="5.4" rx="1.4" fill="#0b7a3c" fill-opacity="0.38"/><rect x="708.8" y="262.0" width="5.4" height="5.4" rx="1.4" fill="#1d2b22" fill-opacity="0.10"/><rect x="708.8" y="269.6" width="5.4" height="5.4" rx="1.4" fill="#00e676" fill-opacity="0.68"/><rect x="708.8" y="277.2" width="5.4" height="5.4" rx="1.4" fill="#0b7a3c" fill-opacity="0.38"/><rect x="708.8" y="284.8" width="5.4" height="5.4" rx="1.4" fill="#8dffb0" fill-opacity="1.00"/><rect x="708.8" y="292.4" width="5.4" height="5.4" rx="1.4" fill="#00e676" fill-opacity="0.68"/><rect x="708.8" y="300.0" width="5.4" height="5.4" rx="1.4" fill="#1d2b22" fill-opacity="0.10"/><rect x="708.8" y="307.6" width="5.4" height="5.4" rx="1.4" fill="#8dffb0" fill-opacity="1.00"/><rect x="716.4" y="262.0" width="5.4" height="5.4" rx="1.4" fill="#0b7a3c" fill-opacity="0.38"/><rect x="716.4" y="269.6" width="5.4" height="5.4" rx="1.4" fill="#1d2b22" fill-opacity="0.10"/><rect x="716.4" y="277.2" width="5.4" height="5.4" rx="1.4" fill="#00e676" fill-opacity="0.68"/><rect x="716.4" y="284.8" width="5.4" height="5.4" rx="1.4" fill="#1d2b22" fill-opacity="0.10"/><rect x="716.4" y="292.4" width="5.4" height="5.4" rx="1.4" fill="#8dffb0" fill-opacity="1.00"/><rect x="716.4" y="300.0" width="5.4" height="5.4" rx="1.4" fill="#0b7a3c" fill-opacity="0.38"/><rect x="716.4" y="307.6" width="5.4" height="5.4" rx="1.4" fill="#1d2b22" fill-opacity="0.10"/><rect x="724.0" y="262.0" width="5.4" height="5.4" rx="1.4" fill="#00e676" fill-opacity="0.68"/><rect x="724.0" y="269.6" width="5.4" height="5.4" rx="1.4" fill="#1d2b22" fill-opacity="0.10"/><rect x="724.0" y="277.2" width="5.4" height="5.4" rx="1.4" fill="#8dffb0" fill-opacity="1.00"/><rect x="724.0" y="284.8" width="5.4" height="5.4" rx="1.4" fill="#0b7a3c" fill-opacity="0.38"/><rect x="724.0" y="292.4" width="5.4" height="5.4" rx="1.4" fill="#1d2b22" fill-opacity="0.10"/><rect x="724.0" y="300.0" width="5.4" height="5.4" rx="1.4" fill="#00e676" fill-opacity="0.68"/><rect x="724.0" y="307.6" width="5.4" height="5.4" rx="1.4" fill="#0b7a3c" fill-opacity="0.38"/><rect x="731.6" y="262.0" width="5.4" height="5.4" rx="1.4" fill="#8dffb0" fill-opacity="1.00"/><rect x="731.6" y="269.6" width="5.4" height="5.4" rx="1.4" fill="#00e676" fill-opacity="0.68"/><rect x="731.6" y="277.2" width="5.4" height="5.4" rx="1.4" fill="#1d2b22" fill-opacity="0.10"/><rect x="731.6" y="284.8" width="5.4" height="5.4" rx="1.4" fill="#8dffb0" fill-opacity="1.00"/><rect x="731.6" y="292.4" width="5.4" height="5.4" rx="1.4" fill="#0b7a3c" fill-opacity="0.38"/><rect x="731.6" y="300.0" width="5.4" height="5.4" rx="1.4" fill="#1d2b22" fill-opacity="0.10"/><rect x="731.6" y="307.6" width="5.4" height="5.4" rx="1.4" fill="#00e676" fill-opacity="0.68"/><rect x="739.2" y="262.0" width="5.4" height="5.4" rx="1.4" fill="#1d2b22" fill-opacity="0.10"/><rect x="739.2" y="269.6" width="5.4" height="5.4" rx="1.4" fill="#8dffb0" fill-opacity="1.00"/><rect x="739.2" y="277.2" width="5.4" height="5.4" rx="1.4" fill="#0b7a3c" fill-opacity="0.38"/><rect x="739.2" y="284.8" width="5.4" height="5.4" rx="1.4" fill="#1d2b22" fill-opacity="0.10"/><rect x="739.2" y="292.4" width="5.4" height="5.4" rx="1.4" fill="#00e676" fill-opacity="0.68"/><rect x="739.2" y="300.0" width="5.4" height="5.4" rx="1.4" fill="#1d2b22" fill-opacity="0.10"/><rect x="739.2" y="307.6" width="5.4" height="5.4" rx="1.4" fill="#8dffb0" fill-opacity="1.00"/><rect x="746.8" y="262.0" width="5.4" height="5.4" rx="1.4" fill="#0b7a3c" fill-opacity="0.38"/><rect x="746.8" y="269.6" width="5.4" height="5.4" rx="1.4" fill="#1d2b22" fill-opacity="0.10"/><rect x="746.8" y="277.2" width="5.4" height="5.4" rx="1.4" fill="#00e676" fill-opacity="0.68"/><rect x="746.8" y="284.8" width="5.4" height="5.4" rx="1.4" fill="#0b7a3c" fill-opacity="0.38"/><rect x="746.8" y="292.4" width="5.4" height="5.4" rx="1.4" fill="#8dffb0" fill-opacity="1.00"/><rect x="746.8" y="300.0" width="5.4" height="5.4" rx="1.4" fill="#0b7a3c" fill-opacity="0.38"/><rect x="746.8" y="307.6" width="5.4" height="5.4" rx="1.4" fill="#1d2b22" fill-opacity="0.10"/><rect x="754.4" y="262.0" width="5.4" height="5.4" rx="1.4" fill="#00e676" fill-opacity="0.68"/><rect x="754.4" y="269.6" width="5.4" height="5.4" rx="1.4" fill="#0b7a3c" fill-opacity="0.38"/><rect x="754.4" y="277.2" width="5.4" height="5.4" rx="1.4" fill="#1d2b22" fill-opacity="0.10"/><rect x="754.4" y="284.8" width="5.4" height="5.4" rx="1.4" fill="#00e676" fill-opacity="0.68"/><rect x="754.4" y="292.4" width="5.4" height="5.4" rx="1.4" fill="#1d2b22" fill-opacity="0.10"/><rect x="754.4" y="300.0" width="5.4" height="5.4" rx="1.4" fill="#8dffb0" fill-opacity="1.00"/><rect x="754.4" y="307.6" width="5.4" height="5.4" rx="1.4" fill="#0b7a3c" fill-opacity="0.38"/><rect x="762.0" y="262.0" width="5.4" height="5.4" rx="1.4" fill="#1d2b22" fill-opacity="0.10"/><rect x="762.0" y="269.6" width="5.4" height="5.4" rx="1.4" fill="#00e676" fill-opacity="0.68"/><rect x="762.0" y="277.2" width="5.4" height="5.4" rx="1.4" fill="#1d2b22" fill-opacity="0.10"/><rect x="762.0" y="284.8" width="5.4" height="5.4" rx="1.4" fill="#8dffb0" fill-opacity="1.00"/><rect x="762.0" y="292.4" width="5.4" height="5.4" rx="1.4" fill="#0b7a3c" fill-opacity="0.38"/><rect x="762.0" y="300.0" width="5.4" height="5.4" rx="1.4" fill="#1d2b22" fill-opacity="0.10"/><rect x="762.0" y="307.6" width="5.4" height="5.4" rx="1.4" fill="#00e676" fill-opacity="0.68"/><rect x="769.6" y="262.0" width="5.4" height="5.4" rx="1.4" fill="#1d2b22" fill-opacity="0.10"/><rect x="769.6" y="269.6" width="5.4" height="5.4" rx="1.4" fill="#8dffb0" fill-opacity="1.00"/><rect x="769.6" y="277.2" width="5.4" height="5.4" rx="1.4" fill="#0b7a3c" fill-opacity="0.38"/><rect x="769.6" y="284.8" width="5.4" height="5.4" rx="1.4" fill="#1d2b22" fill-opacity="0.10"/><rect x="769.6" y="292.4" width="5.4" height="5.4" rx="1.4" fill="#00e676" fill-opacity="0.68"/><rect x="769.6" y="300.0" width="5.4" height="5.4" rx="1.4" fill="#0b7a3c" fill-opacity="0.38"/><rect x="769.6" y="307.6" width="5.4" height="5.4" rx="1.4" fill="#8dffb0" fill-opacity="1.00"/><rect x="777.2" y="262.0" width="5.4" height="5.4" rx="1.4" fill="#00e676" fill-opacity="0.68"/><rect x="777.2" y="269.6" width="5.4" height="5.4" rx="1.4" fill="#1d2b22" fill-opacity="0.10"/><rect x="777.2" y="277.2" width="5.4" height="5.4" rx="1.4" fill="#8dffb0" fill-opacity="1.00"/><rect x="777.2" y="284.8" width="5.4" height="5.4" rx="1.4" fill="#0b7a3c" fill-opacity="0.38"/><rect x="777.2" y="292.4" width="5.4" height="5.4" rx="1.4" fill="#1d2b22" fill-opacity="0.10"/><rect x="777.2" y="300.0" width="5.4" height="5.4" rx="1.4" fill="#00e676" fill-opacity="0.68"/><rect x="777.2" y="307.6" width="5.4" height="5.4" rx="1.4" fill="#1d2b22" fill-opacity="0.10"/><rect x="784.8" y="262.0" width="5.4" height="5.4" rx="1.4" fill="#8dffb0" fill-opacity="1.00"/><rect x="784.8" y="269.6" width="5.4" height="5.4" rx="1.4" fill="#0b7a3c" fill-opacity="0.38"/><rect x="784.8" y="277.2" width="5.4" height="5.4" rx="1.4" fill="#1d2b22" fill-opacity="0.10"/><rect x="784.8" y="284.8" width="5.4" height="5.4" rx="1.4" fill="#00e676" fill-opacity="0.68"/><rect x="784.8" y="292.4" width="5.4" height="5.4" rx="1.4" fill="#1d2b22" fill-opacity="0.10"/><rect x="784.8" y="300.0" width="5.4" height="5.4" rx="1.4" fill="#8dffb0" fill-opacity="1.00"/><rect x="784.8" y="307.6" width="5.4" height="5.4" rx="1.4" fill="#0b7a3c" fill-opacity="0.38"/><rect x="792.4" y="262.0" width="5.4" height="5.4" rx="1.4" fill="#1d2b22" fill-opacity="0.10"/><rect x="792.4" y="269.6" width="5.4" height="5.4" rx="1.4" fill="#00e676" fill-opacity="0.68"/><rect x="792.4" y="277.2" width="5.4" height="5.4" rx="1.4" fill="#0b7a3c" fill-opacity="0.38"/><rect x="792.4" y="284.8" width="5.4" height="5.4" rx="1.4" fill="#8dffb0" fill-opacity="1.00"/><rect x="792.4" y="292.4" width="5.4" height="5.4" rx="1.4" fill="#0b7a3c" fill-opacity="0.38"/><rect x="792.4" y="300.0" width="5.4" height="5.4" rx="1.4" fill="#1d2b22" fill-opacity="0.10"/><rect x="792.4" y="307.6" width="5.4" height="5.4" rx="1.4" fill="#00e676" fill-opacity="0.68"/><rect x="800.0" y="262.0" width="5.4" height="5.4" rx="1.4" fill="#0b7a3c" fill-opacity="0.38"/><rect x="800.0" y="269.6" width="5.4" height="5.4" rx="1.4" fill="#1d2b22" fill-opacity="0.10"/><rect x="800.0" y="277.2" width="5.4" height="5.4" rx="1.4" fill="#00e676" fill-opacity="0.68"/><rect x="800.0" y="284.8" width="5.4" height="5.4" rx="1.4" fill="#1d2b22" fill-opacity="0.10"/><rect x="800.0" y="292.4" width="5.4" height="5.4" rx="1.4" fill="#8dffb0" fill-opacity="1.00"/><rect x="800.0" y="300.0" width="5.4" height="5.4" rx="1.4" fill="#0b7a3c" fill-opacity="0.38"/><rect x="800.0" y="307.6" width="5.4" height="5.4" rx="1.4" fill="#1d2b22" fill-opacity="0.10"/><rect x="807.6" y="262.0" width="5.4" height="5.4" rx="1.4" fill="#00e676" fill-opacity="0.68"/><rect x="807.6" y="269.6" width="5.4" height="5.4" rx="1.4" fill="#1d2b22" fill-opacity="0.10"/><rect x="807.6" y="277.2" width="5.4" height="5.4" rx="1.4" fill="#8dffb0" fill-opacity="1.00"/><rect x="807.6" y="284.8" width="5.4" height="5.4" rx="1.4" fill="#0b7a3c" fill-opacity="0.38"/><rect x="807.6" y="292.4" width="5.4" height="5.4" rx="1.4" fill="#1d2b22" fill-opacity="0.10"/><rect x="807.6" y="300.0" width="5.4" height="5.4" rx="1.4" fill="#00e676" fill-opacity="0.68"/><rect x="807.6" y="307.6" width="5.4" height="5.4" rx="1.4" fill="#1d2b22" fill-opacity="0.10"/><rect x="815.2" y="262.0" width="5.4" height="5.4" rx="1.4" fill="#8dffb0" fill-opacity="1.00"/><rect x="815.2" y="269.6" width="5.4" height="5.4" rx="1.4" fill="#0b7a3c" fill-opacity="0.38"/><rect x="815.2" y="277.2" width="5.4" height="5.4" rx="1.4" fill="#1d2b22" fill-opacity="0.10"/><rect x="815.2" y="284.8" width="5.4" height="5.4" rx="1.4" fill="#00e676" fill-opacity="0.68"/><rect x="815.2" y="292.4" width="5.4" height="5.4" rx="1.4" fill="#0b7a3c" fill-opacity="0.38"/><rect x="815.2" y="300.0" width="5.4" height="5.4" rx="1.4" fill="#8dffb0" fill-opacity="1.00"/><rect x="815.2" y="307.6" width="5.4" height="5.4" rx="1.4" fill="#00e676" fill-opacity="0.68"/><rect x="822.8" y="262.0" width="5.4" height="5.4" rx="1.4" fill="#1d2b22" fill-opacity="0.10"/><rect x="822.8" y="269.6" width="5.4" height="5.4" rx="1.4" fill="#8dffb0" fill-opacity="1.00"/><rect x="822.8" y="277.2" width="5.4" height="5.4" rx="1.4" fill="#0b7a3c" fill-opacity="0.38"/><rect x="822.8" y="284.8" width="5.4" height="5.4" rx="1.4" fill="#1d2b22" fill-opacity="0.10"/><rect x="822.8" y="292.4" width="5.4" height="5.4" rx="1.4" fill="#00e676" fill-opacity="0.68"/><rect x="822.8" y="300.0" width="5.4" height="5.4" rx="1.4" fill="#1d2b22" fill-opacity="0.10"/><rect x="822.8" y="307.6" width="5.4" height="5.4" rx="1.4" fill="#8dffb0" fill-opacity="1.00"/><rect x="830.4" y="262.0" width="5.4" height="5.4" rx="1.4" fill="#0b7a3c" fill-opacity="0.38"/><rect x="830.4" y="269.6" width="5.4" height="5.4" rx="1.4" fill="#1d2b22" fill-opacity="0.10"/><rect x="830.4" y="277.2" width="5.4" height="5.4" rx="1.4" fill="#00e676" fill-opacity="0.68"/><rect x="830.4" y="284.8" width="5.4" height="5.4" rx="1.4" fill="#1d2b22" fill-opacity="0.10"/><rect x="830.4" y="292.4" width="5.4" height="5.4" rx="1.4" fill="#8dffb0" fill-opacity="1.00"/><rect x="830.4" y="300.0" width="5.4" height="5.4" rx="1.4" fill="#0b7a3c" fill-opacity="0.38"/><rect x="830.4" y="307.6" width="5.4" height="5.4" rx="1.4" fill="#1d2b22" fill-opacity="0.10"/><rect x="838.0" y="262.0" width="5.4" height="5.4" rx="1.4" fill="#00e676" fill-opacity="0.68"/><rect x="838.0" y="269.6" width="5.4" height="5.4" rx="1.4" fill="#0b7a3c" fill-opacity="0.38"/><rect x="838.0" y="277.2" width="5.4" height="5.4" rx="1.4" fill="#8dffb0" fill-opacity="1.00"/><rect x="838.0" y="284.8" width="5.4" height="5.4" rx="1.4" fill="#00e676" fill-opacity="0.68"/><rect x="838.0" y="292.4" width="5.4" height="5.4" rx="1.4" fill="#1d2b22" fill-opacity="0.10"/><rect x="838.0" y="300.0" width="5.4" height="5.4" rx="1.4" fill="#8dffb0" fill-opacity="1.00"/><rect x="838.0" y="307.6" width="5.4" height="5.4" rx="1.4" fill="#0b7a3c" fill-opacity="0.38"/><rect x="845.6" y="262.0" width="5.4" height="5.4" rx="1.4" fill="#1d2b22" fill-opacity="0.10"/><rect x="845.6" y="269.6" width="5.4" height="5.4" rx="1.4" fill="#00e676" fill-opacity="0.68"/><rect x="845.6" y="277.2" width="5.4" height="5.4" rx="1.4" fill="#1d2b22" fill-opacity="0.10"/><rect x="845.6" y="284.8" width="5.4" height="5.4" rx="1.4" fill="#8dffb0" fill-opacity="1.00"/><rect x="845.6" y="292.4" width="5.4" height="5.4" rx="1.4" fill="#0b7a3c" fill-opacity="0.38"/><rect x="845.6" y="300.0" width="5.4" height="5.4" rx="1.4" fill="#1d2b22" fill-opacity="0.10"/><rect x="845.6" y="307.6" width="5.4" height="5.4" rx="1.4" fill="#00e676" fill-opacity="0.68"/><rect x="853.2" y="262.0" width="5.4" height="5.4" rx="1.4" fill="#1d2b22" fill-opacity="0.10"/><rect x="853.2" y="269.6" width="5.4" height="5.4" rx="1.4" fill="#8dffb0" fill-opacity="1.00"/><rect x="853.2" y="277.2" width="5.4" height="5.4" rx="1.4" fill="#0b7a3c" fill-opacity="0.38"/><rect x="853.2" y="284.8" width="5.4" height="5.4" rx="1.4" fill="#1d2b22" fill-opacity="0.10"/><rect x="853.2" y="292.4" width="5.4" height="5.4" rx="1.4" fill="#00e676" fill-opacity="0.68"/><rect x="853.2" y="300.0" width="5.4" height="5.4" rx="1.4" fill="#0b7a3c" fill-opacity="0.38"/><rect x="853.2" y="307.6" width="5.4" height="5.4" rx="1.4" fill="#8dffb0" fill-opacity="1.00"/><rect x="860.8" y="262.0" width="5.4" height="5.4" rx="1.4" fill="#0b7a3c" fill-opacity="0.38"/><rect x="860.8" y="269.6" width="5.4" height="5.4" rx="1.4" fill="#1d2b22" fill-opacity="0.10"/><rect x="860.8" y="277.2" width="5.4" height="5.4" rx="1.4" fill="#00e676" fill-opacity="0.68"/><rect x="860.8" y="284.8" width="5.4" height="5.4" rx="1.4" fill="#0b7a3c" fill-opacity="0.38"/><rect x="860.8" y="292.4" width="5.4" height="5.4" rx="1.4" fill="#1d2b22" fill-opacity="0.10"/><rect x="860.8" y="300.0" width="5.4" height="5.4" rx="1.4" fill="#00e676" fill-opacity="0.68"/><rect x="860.8" y="307.6" width="5.4" height="5.4" rx="1.4" fill="#1d2b22" fill-opacity="0.10"/><rect x="868.4" y="262.0" width="5.4" height="5.4" rx="1.4" fill="#8dffb0" fill-opacity="1.00"/><rect x="868.4" y="269.6" width="5.4" height="5.4" rx="1.4" fill="#0b7a3c" fill-opacity="0.38"/><rect x="868.4" y="277.2" width="5.4" height="5.4" rx="1.4" fill="#1d2b22" fill-opacity="0.10"/><rect x="868.4" y="284.8" width="5.4" height="5.4" rx="1.4" fill="#00e676" fill-opacity="0.68"/><rect x="868.4" y="292.4" width="5.4" height="5.4" rx="1.4" fill="#1d2b22" fill-opacity="0.10"/><rect x="868.4" y="300.0" width="5.4" height="5.4" rx="1.4" fill="#8dffb0" fill-opacity="1.00"/><rect x="868.4" y="307.6" width="5.4" height="5.4" rx="1.4" fill="#0b7a3c" fill-opacity="0.38"/><rect x="876.0" y="262.0" width="5.4" height="5.4" rx="1.4" fill="#1d2b22" fill-opacity="0.10"/><rect x="876.0" y="269.6" width="5.4" height="5.4" rx="1.4" fill="#00e676" fill-opacity="0.68"/><rect x="876.0" y="277.2" width="5.4" height="5.4" rx="1.4" fill="#1d2b22" fill-opacity="0.10"/><rect x="876.0" y="284.8" width="5.4" height="5.4" rx="1.4" fill="#8dffb0" fill-opacity="1.00"/><rect x="876.0" y="292.4" width="5.4" height="5.4" rx="1.4" fill="#0b7a3c" fill-opacity="0.38"/><rect x="876.0" y="300.0" width="5.4" height="5.4" rx="1.4" fill="#1d2b22" fill-opacity="0.10"/><rect x="876.0" y="307.6" width="5.4" height="5.4" rx="1.4" fill="#00e676" fill-opacity="0.68"/><rect x="883.6" y="262.0" width="5.4" height="5.4" rx="1.4" fill="#0b7a3c" fill-opacity="0.38"/><rect x="883.6" y="269.6" width="5.4" height="5.4" rx="1.4" fill="#8dffb0" fill-opacity="1.00"/><rect x="883.6" y="277.2" width="5.4" height="5.4" rx="1.4" fill="#00e676" fill-opacity="0.68"/><rect x="883.6" y="284.8" width="5.4" height="5.4" rx="1.4" fill="#1d2b22" fill-opacity="0.10"/><rect x="883.6" y="292.4" width="5.4" height="5.4" rx="1.4" fill="#8dffb0" fill-opacity="1.00"/><rect x="883.6" y="300.0" width="5.4" height="5.4" rx="1.4" fill="#0b7a3c" fill-opacity="0.38"/><rect x="883.6" y="307.6" width="5.4" height="5.4" rx="1.4" fill="#1d2b22" fill-opacity="0.10"/><rect x="891.2" y="262.0" width="5.4" height="5.4" rx="1.4" fill="#00e676" fill-opacity="0.68"/><rect x="891.2" y="269.6" width="5.4" height="5.4" rx="1.4" fill="#1d2b22" fill-opacity="0.10"/><rect x="891.2" y="277.2" width="5.4" height="5.4" rx="1.4" fill="#8dffb0" fill-opacity="1.00"/><rect x="891.2" y="284.8" width="5.4" height="5.4" rx="1.4" fill="#0b7a3c" fill-opacity="0.38"/><rect x="891.2" y="292.4" width="5.4" height="5.4" rx="1.4" fill="#1d2b22" fill-opacity="0.10"/><rect x="891.2" y="300.0" width="5.4" height="5.4" rx="1.4" fill="#00e676" fill-opacity="0.68"/><rect x="891.2" y="307.6" width="5.4" height="5.4" rx="1.4" fill="#1d2b22" fill-opacity="0.10"/><rect x="898.8" y="262.0" width="5.4" height="5.4" rx="1.4" fill="#8dffb0" fill-opacity="1.00"/><rect x="898.8" y="269.6" width="5.4" height="5.4" rx="1.4" fill="#0b7a3c" fill-opacity="0.38"/><rect x="898.8" y="277.2" width="5.4" height="5.4" rx="1.4" fill="#1d2b22" fill-opacity="0.10"/><rect x="898.8" y="284.8" width="5.4" height="5.4" rx="1.4" fill="#00e676" fill-opacity="0.68"/><rect x="898.8" y="292.4" width="5.4" height="5.4" rx="1.4" fill="#0b7a3c" fill-opacity="0.38"/><rect x="898.8" y="300.0" width="5.4" height="5.4" rx="1.4" fill="#8dffb0" fill-opacity="1.00"/><rect x="898.8" y="307.6" width="5.4" height="5.4" rx="1.4" fill="#0b7a3c" fill-opacity="0.38"/><rect x="906.4" y="262.0" width="5.4" height="5.4" rx="1.4" fill="#1d2b22" fill-opacity="0.10"/><rect x="906.4" y="269.6" width="5.4" height="5.4" rx="1.4" fill="#00e676" fill-opacity="0.68"/><rect x="906.4" y="277.2" width="5.4" height="5.4" rx="1.4" fill="#0b7a3c" fill-opacity="0.38"/><rect x="906.4" y="284.8" width="5.4" height="5.4" rx="1.4" fill="#1d2b22" fill-opacity="0.10"/><rect x="906.4" y="292.4" width="5.4" height="5.4" rx="1.4" fill="#00e676" fill-opacity="0.68"/><rect x="906.4" y="300.0" width="5.4" height="5.4" rx="1.4" fill="#1d2b22" fill-opacity="0.10"/><rect x="906.4" y="307.6" width="5.4" height="5.4" rx="1.4" fill="#8dffb0" fill-opacity="1.00"/><rect x="914.0" y="262.0" width="5.4" height="5.4" rx="1.4" fill="#0b7a3c" fill-opacity="0.38"/><rect x="914.0" y="269.6" width="5.4" height="5.4" rx="1.4" fill="#1d2b22" fill-opacity="0.10"/><rect x="914.0" y="277.2" width="5.4" height="5.4" rx="1.4" fill="#00e676" fill-opacity="0.68"/><rect x="914.0" y="284.8" width="5.4" height="5.4" rx="1.4" fill="#1d2b22" fill-opacity="0.10"/><rect x="914.0" y="292.4" width="5.4" height="5.4" rx="1.4" fill="#8dffb0" fill-opacity="1.00"/><rect x="914.0" y="300.0" width="5.4" height="5.4" rx="1.4" fill="#0b7a3c" fill-opacity="0.38"/><rect x="914.0" y="307.6" width="5.4" height="5.4" rx="1.4" fill="#1d2b22" fill-opacity="0.10"/><text x="648" y="252" font-family="Consolas, ui-monospace, monospace" font-size="13" letter-spacing="2" fill="#93a29a">ANNUAL READING HEATMAP &#183; 365 DAYS</text><text x="916" y="318" font-family="Consolas, ui-monospace, monospace" font-size="12" fill="#93a29a">LESS</text><rect x="950" y="309" width="9" height="9" rx="2" fill="#1d2b22"/><rect x="962" y="309" width="9" height="9" rx="2" fill="#0b7a3c"/><rect x="974" y="309" width="9" height="9" rx="2" fill="#00e676"/><rect x="986" y="309" width="9" height="9" rx="2" fill="#8dffb0"/><text x="1000" y="318" font-family="Consolas, ui-monospace, monospace" font-size="12" fill="#93a29a">MORE</text></g>
  <g id="stat-ring" transform="translate(1096 288)">
    <circle r="40" fill="#141a17" stroke="#26302a" stroke-width="8"/>
    <circle r="40" fill="none" stroke="#00e676" stroke-width="8" stroke-linecap="round"
      stroke-dasharray="156 251" transform="rotate(-90)"/>
    <text y="0" text-anchor="middle" font-family="-apple-system, BlinkMacSystemFont, Segoe UI, sans-serif" font-size="21" font-weight="800" fill="#e8f0ec" dominant-baseline="middle">62%</text>
    <text y="24" text-anchor="middle" font-family="-apple-system, BlinkMacSystemFont, Segoe UI, PingFang SC, sans-serif" font-size="11" fill="#93a29a">已沉淀</text>
  </g>
  <g id="title-block" transform="translate(64 0)" font-family="-apple-system, BlinkMacSystemFont, Segoe UI, PingFang SC, sans-serif">
    <text x="0" y="86" font-family="Consolas, ui-monospace, SFMono-Regular, Menlo, monospace" font-size="17" letter-spacing="3" fill="#00e676">BAIXIAO READING COCKPIT &#183; OBSIDIAN PLUGIN</text>
    <text x="0" y="152" font-size="60" font-weight="800" fill="#e8f0ec">阅读吸收驾驶舱</text>
    <text x="2" y="196" font-size="21" fill="#aebbb4">把 Vault 里的阅读状态，变成可推进、可回顾的知识工作流</text>
    <text x="2" y="248" font-size="17" fill="#7e8d85">阅读队列 &#183; 状态写回 YAML &#183; 年度热力图 &#183; WebGL 流体统计卡</text>
    <g fill="#cde8d8">
      <g transform="translate(0 292)"><rect width="190" height="38" rx="10" fill="#00e676" fill-opacity="0.09" stroke="#00e676" stroke-opacity="0.4"/><text x="15" y="25" font-size="16">未读 / 在读 / 已读</text></g>
      <g transform="translate(204 292)"><rect width="216" height="38" rx="10" fill="#00e676" fill-opacity="0.09" stroke="#00e676" stroke-opacity="0.4"/><text x="15" y="25" font-size="16">待沉淀 / 已沉淀 / 免沉淀</text></g>
    </g>
  </g>
</svg>
